<svg width="32" height="32" viewBox="0 0 32 32" fill="none" xmlns="http://www.w3.org/2000/svg">
<g clip-path="url(#clip0_17_342)">
<path d="M16.0001 0.330078C20.156 0.330078 24.1417 1.98102 27.0804 4.91971C30.0191 7.85841 31.6701 11.8441 31.6701 16.0001C31.6701 20.156 30.0191 24.1417 27.0804 27.0804C24.1417 30.0191 20.156 31.6701 16.0001 31.6701C11.8441 31.6701 7.85841 30.0191 4.91971 27.0804C1.98102 24.1417 0.330078 20.156 0.330078 16.0001C0.330078 11.8441 1.98102 7.85841 4.91971 4.91971C7.85841 1.98102 11.8441 0.330078 16.0001 0.330078ZM16.0001 2.33008C14.2049 2.33008 12.4273 2.68366 10.7688 3.37064C9.11028 4.05763 7.6033 5.06455 6.33393 6.33393C5.06455 7.60331 4.05763 9.11028 3.37064 10.7688C2.68366 12.4273 2.33008 14.2049 2.33008 16.0001C2.33008 17.7952 2.68366 19.5728 3.37064 21.2314C4.05763 22.8899 5.06455 24.3969 6.33393 25.6662C7.6033 26.9356 9.11028 27.9425 10.7688 28.6295C12.4273 29.3165 14.2049 29.6701 16.0001 29.6701C19.6256 29.6701 23.1026 28.2298 25.6662 25.6662C28.2298 23.1026 29.6701 19.6256 29.6701 16.0001C29.6701 12.3746 28.2298 8.89755 25.6662 6.33393C23.1026 3.77031 19.6256 2.33008 16.0001 2.33008ZM17.0001 5.33008V15.4301L25.7401 20.4701L24.7401 22.2001L15.0001 16.5801V5.33008H17.0001Z" fill="white"/>
</g>
<defs>
<clipPath id="clip0_17_342">
<rect width="32" height="32" fill="white"/>
</clipPath>
</defs>
</svg>
