<svg width="32" height="32" viewBox="0 0 32 32" fill="none" xmlns="http://www.w3.org/2000/svg">
<path d="M25 4.00001C25.5054 3.99858 25.9927 4.18859 26.3637 4.5318C26.7348 4.87502 26.9621 5.34599 27 5.85001V8.00001H29.04C30.08 8.00001 30.92 8.82001 31 9.85001V26C31 27.05 30.2 27.92 29.19 28H6.96001C6.46184 27.9935 5.98442 27.7995 5.62299 27.4566C5.26156 27.1137 5.04268 26.6471 5.01001 26.15L5.00001 26V24H3.00001C2.49457 24.0014 2.00734 23.8114 1.63629 23.4682C1.26525 23.125 1.03791 22.654 1.00001 22.15V6.00001C0.998585 5.49457 1.18859 5.00734 1.5318 4.63629C1.87502 4.26525 2.34599 4.03791 2.85001 4.00001H3.00001H25ZM27 22C27.0014 22.5054 26.8114 22.9927 26.4682 23.3637C26.125 23.7348 25.654 23.9621 25.15 24H7.00001V26H29V10H27V22ZM25 6.00001H3.00001V22H25V6.00001ZM22 18C22.2652 18 22.5196 18.1054 22.7071 18.2929C22.8947 18.4804 23 18.7348 23 19C23 19.2652 22.8947 19.5196 22.7071 19.7071C22.5196 19.8947 22.2652 20 22 20C21.7348 20 21.4804 19.8947 21.2929 19.7071C21.1054 19.5196 21 19.2652 21 19C21 18.7348 21.1054 18.4804 21.2929 18.2929C21.4804 18.1054 21.7348 18 22 18ZM14 10C15.0609 10 16.0783 10.4214 16.8284 11.1716C17.5786 11.9217 18 12.9391 18 14C18 15.0609 17.5786 16.0783 16.8284 16.8284C16.0783 17.5786 15.0609 18 14 18C12.9391 18 11.9217 17.5786 11.1716 16.8284C10.4214 16.0783 10 15.0609 10 14C10 12.9391 10.4214 11.9217 11.1716 11.1716C11.9217 10.4214 12.9391 10 14 10ZM14 12C13.4696 12 12.9609 12.2107 12.5858 12.5858C12.2107 12.9609 12 13.4696 12 14C12 14.5304 12.2107 15.0391 12.5858 15.4142C12.9609 15.7893 13.4696 16 14 16C14.5304 16 15.0391 15.7893 15.4142 15.4142C15.7893 15.0391 16 14.5304 16 14C16 13.4696 15.7893 12.9609 15.4142 12.5858C15.0391 12.2107 14.5304 12 14 12ZM6.00001 8.00001C6.26522 8.00001 6.51958 8.10537 6.70711 8.2929C6.89465 8.48044 7.00001 8.73479 7.00001 9.00001C7.00001 9.26522 6.89465 9.51958 6.70711 9.70711C6.51958 9.89465 6.26522 10 6.00001 10C5.73479 10 5.48044 9.89465 5.2929 9.70711C5.10537 9.51958 5.00001 9.26522 5.00001 9.00001C5.00001 8.73479 5.10537 8.48044 5.2929 8.2929C5.48044 8.10537 5.73479 8.00001 6.00001 8.00001Z" fill="white"/>
</svg>
