<svg xmlns:xlink="http://www.w3.org/1999/xlink" xmlns="http://www.w3.org/2000/svg" viewBox="0 0 32 32" aria-hidden="true" role="presentation" focusable="false" style="display: block; height: 24px; width: 24px; fill: currentcolor;" width="32"  height="32" ><path d="M28 2a2 2 0 0 1 2 1.85V28a2 2 0 0 1-1.85 2H4a2 2 0 0 1-2-1.85V4a2 2 0 0 1 1.85-2H4zM16 6.92 12.91 10H4v18h8v-5a2 2 0 0 1 1.85-2H18a2 2 0 0 1 2 1.85V28h8V10h-8.91zM18 23h-4v5h4zm6-2a1 1 0 1 1 0 2 1 1 0 0 1 0-2zM8 21a1 1 0 1 1 0 2 1 1 0 0 1 0-2zm16-4a1 1 0 1 1 0 2 1 1 0 0 1 0-2zM8 17a1 1 0 1 1 0 2 1 1 0 0 1 0-2zm16-4a1 1 0 1 1 0 2 1 1 0 0 1 0-2zm-8 0a1 1 0 1 1 0 2 1 1 0 0 1 0-2zm-8 0a1 1 0 1 1 0 2 1 1 0 0 1 0-2zm20-5V4H4v4h8.08l2.5-2.5a2 2 0 0 1 2.7-.12l.13.12 2.5 2.5z" fill="#222222"></path></svg>