<svg xmlns:xlink="http://www.w3.org/1999/xlink" xmlns="http://www.w3.org/2000/svg" viewBox="0 0 32 32" aria-hidden="true" role="presentation" focusable="false" style="display: block; height: 24px; width: 24px; fill: currentcolor;" width="32"  height="32" ><path d="M16 1a4 4 0 0 1 3.81 2.8l.06.2h3.46A3.67 3.67 0 0 1 27 7.47l.01.2v19.66A3.67 3.67 0 0 1 23.53 31l-.2.01H8.67A3.67 3.67 0 0 1 5 27.53l-.01-.2V7.67A3.67 3.67 0 0 1 8.47 4l.2-.01h3.46l.04-.16a4 4 0 0 1 3.42-2.82L15.8 1zM9 6h-.33c-.88 0-1.6.67-1.66 1.52L7 7.67v19.66c0 .88.67 1.6 1.52 1.66l.15.01h14.66c.88 0 1.6-.67 1.66-1.52l.01-.15V7.67c0-.88-.67-1.6-1.52-1.66L23.33 6H23v5H9zm1 13a1 1 0 1 1 0 2 1 1 0 0 1 0-2zm8 0v2h-6v-2zm-8-5a1 1 0 1 1 0 2 1 1 0 0 1 0-2zm10 0v2h-8v-2zM16 3a2 2 0 0 0-2 1.85V6h-3v3h10V6h-2.97L18 4.88A2 2 0 0 0 16 3zm0 1a1 1 0 1 1 0 2 1 1 0 0 1 0-2z" fill="#222222"></path></svg>